<mxfile host="app.diagrams.net" agent="Mozilla/5.0 (X11; Ubuntu; Linux x86_64; rv:132.0) Gecko/20100101 Firefox/132.0" version="24.8.4">
  <diagram name="Page-1" id="8xszwflC37rDnznJlCYO">
    <mxGraphModel dx="2212" dy="1895" grid="1" gridSize="10" guides="1" tooltips="1" connect="1" arrows="1" fold="1" page="1" pageScale="1" pageWidth="850" pageHeight="1100" math="0" shadow="0">
      <root>
        <mxCell id="0" />
        <mxCell id="1" parent="0" />
        <mxCell id="PBpltQ-XPWgyExFx80Mb-1" value="&lt;div&gt;Host: &lt;br&gt;&lt;/div&gt;&lt;div&gt;Eth0: &lt;br&gt;&lt;/div&gt;&lt;div&gt;Ports: &lt;br&gt;&lt;/div&gt;" style="ellipse;whiteSpace=wrap;html=1;aspect=fixed;" vertex="1" parent="1">
          <mxGeometry x="-80" y="240" width="120" height="120" as="geometry" />
        </mxCell>
        <mxCell id="PBpltQ-XPWgyExFx80Mb-2" value="&lt;div&gt;Host: &lt;br&gt;&lt;/div&gt;&lt;div&gt;Eth0: &lt;br&gt;&lt;/div&gt;&lt;div&gt;Ports: &lt;br&gt;&lt;/div&gt;" style="whiteSpace=wrap;html=1;aspect=fixed;" vertex="1" parent="1">
          <mxGeometry x="80" y="720" width="120" height="120" as="geometry" />
        </mxCell>
        <mxCell id="PBpltQ-XPWgyExFx80Mb-3" value="" style="ellipse;shape=cloud;whiteSpace=wrap;html=1;" vertex="1" parent="1">
          <mxGeometry x="-81" y="720" width="120" height="120" as="geometry" />
        </mxCell>
        <mxCell id="PBpltQ-XPWgyExFx80Mb-6" value="&lt;div&gt;Host: &lt;br&gt;&lt;/div&gt;&lt;div&gt;Eth0: &lt;br&gt;&lt;/div&gt;&lt;div&gt;Ports: &lt;br&gt;&lt;/div&gt;" style="ellipse;whiteSpace=wrap;html=1;aspect=fixed;" vertex="1" parent="1">
          <mxGeometry x="240" y="720" width="120" height="120" as="geometry" />
        </mxCell>
        <mxCell id="PBpltQ-XPWgyExFx80Mb-7" value="&lt;div&gt;Host: tunnels-training-atropia-pivot&lt;br&gt;&lt;/div&gt;&lt;div&gt;Eth0: 10.3.0.10/24&lt;br&gt;&lt;/div&gt;&lt;div&gt;Ports: 22&lt;/div&gt;&lt;div&gt;Float: 10.50.27.164&lt;br&gt;&lt;/div&gt;" style="ellipse;whiteSpace=wrap;html=1;aspect=fixed;" vertex="1" parent="1">
          <mxGeometry x="600" y="120" width="120" height="120" as="geometry" />
        </mxCell>
        <mxCell id="PBpltQ-XPWgyExFx80Mb-8" value="&lt;div&gt;Host: tunnels-training-pineland-insider&lt;br&gt;&lt;/div&gt;&lt;div&gt;Eth0: 10.2.0.1/24&lt;br&gt;&lt;/div&gt;&lt;div&gt;Ports: 22,23.80&lt;/div&gt;&lt;div&gt;Float: 10.50.29.131&lt;br&gt;&lt;/div&gt;" style="ellipse;whiteSpace=wrap;html=1;aspect=fixed;" vertex="1" parent="1">
          <mxGeometry x="760" y="120" width="120" height="120" as="geometry" />
        </mxCell>
        <mxCell id="PBpltQ-XPWgyExFx80Mb-9" value="&lt;div&gt;Host: Blue-Internet-Host&lt;br&gt;&lt;/div&gt;&lt;div&gt;Eth0: 10.10.0.40/27 &lt;br&gt;&lt;/div&gt;&lt;div&gt;Ports: 21,22,23,80&lt;/div&gt;&lt;div&gt;Float: 10.50.24.152&lt;br&gt;&lt;/div&gt;" style="ellipse;whiteSpace=wrap;html=1;aspect=fixed;" vertex="1" parent="1">
          <mxGeometry x="600" y="280" width="120" height="120" as="geometry" />
        </mxCell>
        <mxCell id="PBpltQ-XPWgyExFx80Mb-10" value="&lt;div&gt;Host: &lt;br&gt;&lt;/div&gt;&lt;div&gt;Eth0: 10.2.0.2&lt;br&gt;&lt;/div&gt;&lt;div&gt;Ports: &lt;br&gt;&lt;/div&gt;" style="ellipse;whiteSpace=wrap;html=1;aspect=fixed;" vertex="1" parent="1">
          <mxGeometry x="760" y="-200" width="120" height="120" as="geometry" />
        </mxCell>
        <mxCell id="PBpltQ-XPWgyExFx80Mb-11" value="&lt;div&gt;Host: &lt;br&gt;&lt;/div&gt;&lt;div&gt;Eth0: 10.2.0.3&lt;br&gt;&lt;/div&gt;&lt;div&gt;Ports: &lt;br&gt;&lt;/div&gt;" style="ellipse;whiteSpace=wrap;html=1;aspect=fixed;" vertex="1" parent="1">
          <mxGeometry x="920" y="-200" width="120" height="120" as="geometry" />
        </mxCell>
        <mxCell id="PBpltQ-XPWgyExFx80Mb-12" value="&lt;div&gt;Host: &lt;br&gt;&lt;/div&gt;&lt;div&gt;Eth0: 10.2.0.201&lt;br&gt;&lt;/div&gt;&lt;div&gt;Ports: &lt;br&gt;&lt;/div&gt;" style="ellipse;whiteSpace=wrap;html=1;aspect=fixed;" vertex="1" parent="1">
          <mxGeometry x="1240" y="-200" width="120" height="120" as="geometry" />
        </mxCell>
        <mxCell id="PBpltQ-XPWgyExFx80Mb-13" value="&lt;div&gt;Host: &lt;br&gt;&lt;/div&gt;&lt;div&gt;Eth0: 10.2.0.245&lt;br&gt;&lt;/div&gt;&lt;div&gt;Ports: &lt;br&gt;&lt;/div&gt;" style="ellipse;whiteSpace=wrap;html=1;aspect=fixed;" vertex="1" parent="1">
          <mxGeometry x="1400" y="-200" width="120" height="120" as="geometry" />
        </mxCell>
        <mxCell id="PBpltQ-XPWgyExFx80Mb-15" value="&lt;div&gt;Host: &lt;br&gt;&lt;/div&gt;&lt;div&gt;Eth0: 10.2.0.200&lt;br&gt;&lt;/div&gt;&lt;div&gt;Ports: &lt;br&gt;&lt;/div&gt;" style="ellipse;whiteSpace=wrap;html=1;aspect=fixed;" vertex="1" parent="1">
          <mxGeometry x="1080" y="-200" width="120" height="120" as="geometry" />
        </mxCell>
        <mxCell id="PBpltQ-XPWgyExFx80Mb-16" value="" style="endArrow=none;html=1;rounded=0;entryX=0.5;entryY=1;entryDx=0;entryDy=0;exitX=0.5;exitY=0;exitDx=0;exitDy=0;" edge="1" parent="1" source="PBpltQ-XPWgyExFx80Mb-8" target="PBpltQ-XPWgyExFx80Mb-10">
          <mxGeometry width="50" height="50" relative="1" as="geometry">
            <mxPoint x="590" y="-10" as="sourcePoint" />
            <mxPoint x="640" y="-60" as="targetPoint" />
          </mxGeometry>
        </mxCell>
        <mxCell id="PBpltQ-XPWgyExFx80Mb-17" value="" style="endArrow=none;html=1;rounded=0;entryX=1;entryY=0.5;entryDx=0;entryDy=0;exitX=0;exitY=0.5;exitDx=0;exitDy=0;" edge="1" parent="1" source="PBpltQ-XPWgyExFx80Mb-11" target="PBpltQ-XPWgyExFx80Mb-10">
          <mxGeometry width="50" height="50" relative="1" as="geometry">
            <mxPoint x="490" y="-115" as="sourcePoint" />
            <mxPoint x="540" y="-165" as="targetPoint" />
          </mxGeometry>
        </mxCell>
        <mxCell id="PBpltQ-XPWgyExFx80Mb-18" value="" style="endArrow=none;html=1;rounded=0;entryX=1;entryY=0.5;entryDx=0;entryDy=0;exitX=0;exitY=0.5;exitDx=0;exitDy=0;" edge="1" parent="1" source="PBpltQ-XPWgyExFx80Mb-11" target="PBpltQ-XPWgyExFx80Mb-10">
          <mxGeometry width="50" height="50" relative="1" as="geometry">
            <mxPoint x="920" y="-140" as="sourcePoint" />
            <mxPoint x="880" y="-140" as="targetPoint" />
            <Array as="points">
              <mxPoint x="900" y="-140" />
            </Array>
          </mxGeometry>
        </mxCell>
        <mxCell id="PBpltQ-XPWgyExFx80Mb-20" value="" style="endArrow=none;html=1;rounded=0;exitX=1;exitY=0.5;exitDx=0;exitDy=0;" edge="1" parent="1" source="PBpltQ-XPWgyExFx80Mb-11" target="PBpltQ-XPWgyExFx80Mb-15">
          <mxGeometry width="50" height="50" relative="1" as="geometry">
            <mxPoint x="1040" y="-230" as="sourcePoint" />
            <mxPoint x="1090" y="-280" as="targetPoint" />
          </mxGeometry>
        </mxCell>
        <mxCell id="PBpltQ-XPWgyExFx80Mb-21" value="" style="endArrow=none;html=1;rounded=0;exitX=1;exitY=0.5;exitDx=0;exitDy=0;entryX=0;entryY=0.5;entryDx=0;entryDy=0;" edge="1" parent="1" source="PBpltQ-XPWgyExFx80Mb-15" target="PBpltQ-XPWgyExFx80Mb-12">
          <mxGeometry width="50" height="50" relative="1" as="geometry">
            <mxPoint x="1180" y="-280" as="sourcePoint" />
            <mxPoint x="1230" y="-330" as="targetPoint" />
          </mxGeometry>
        </mxCell>
        <mxCell id="PBpltQ-XPWgyExFx80Mb-22" value="" style="endArrow=none;html=1;rounded=0;exitX=1;exitY=0.5;exitDx=0;exitDy=0;entryX=0;entryY=0.5;entryDx=0;entryDy=0;" edge="1" parent="1" source="PBpltQ-XPWgyExFx80Mb-12" target="PBpltQ-XPWgyExFx80Mb-13">
          <mxGeometry width="50" height="50" relative="1" as="geometry">
            <mxPoint x="1300" y="-260" as="sourcePoint" />
            <mxPoint x="1430" y="-490" as="targetPoint" />
          </mxGeometry>
        </mxCell>
        <mxCell id="PBpltQ-XPWgyExFx80Mb-23" value="" style="endArrow=none;html=1;rounded=0;entryX=0.5;entryY=0;entryDx=0;entryDy=0;exitX=0.5;exitY=1;exitDx=0;exitDy=0;" edge="1" parent="1" source="PBpltQ-XPWgyExFx80Mb-7" target="PBpltQ-XPWgyExFx80Mb-9">
          <mxGeometry width="50" height="50" relative="1" as="geometry">
            <mxPoint x="490" y="400" as="sourcePoint" />
            <mxPoint x="540" y="350" as="targetPoint" />
          </mxGeometry>
        </mxCell>
        <mxCell id="PBpltQ-XPWgyExFx80Mb-24" value="" style="endArrow=none;html=1;rounded=0;entryX=0;entryY=0.5;entryDx=0;entryDy=0;exitX=1;exitY=0.5;exitDx=0;exitDy=0;" edge="1" parent="1" source="PBpltQ-XPWgyExFx80Mb-7" target="PBpltQ-XPWgyExFx80Mb-8">
          <mxGeometry width="50" height="50" relative="1" as="geometry">
            <mxPoint x="700" y="50" as="sourcePoint" />
            <mxPoint x="750" as="targetPoint" />
          </mxGeometry>
        </mxCell>
        <mxCell id="PBpltQ-XPWgyExFx80Mb-26" value="&lt;div&gt;Host: &lt;br&gt;&lt;/div&gt;&lt;div&gt;Eth0: &lt;br&gt;&lt;/div&gt;&lt;div&gt;Ports: &lt;br&gt;&lt;/div&gt;&lt;div&gt;Float: 10.50.28.46&lt;br&gt;&lt;/div&gt;" style="ellipse;whiteSpace=wrap;html=1;aspect=fixed;" vertex="1" parent="1">
          <mxGeometry x="440" y="120" width="120" height="120" as="geometry" />
        </mxCell>
        <mxCell id="PBpltQ-XPWgyExFx80Mb-27" value="&lt;div&gt;Host: &lt;br&gt;&lt;/div&gt;&lt;div&gt;Eth0: 10.3.0.1&lt;br&gt;&lt;/div&gt;&lt;div&gt;Ports: 21,80&lt;br&gt;&lt;/div&gt;" style="ellipse;whiteSpace=wrap;html=1;aspect=fixed;" vertex="1" parent="1">
          <mxGeometry x="600" y="-200" width="120" height="120" as="geometry" />
        </mxCell>
        <mxCell id="PBpltQ-XPWgyExFx80Mb-28" value="&lt;div&gt;Host: &lt;br&gt;&lt;/div&gt;&lt;div&gt;Eth0: 10.3.0.200&lt;br&gt;&lt;/div&gt;&lt;div&gt;Ports: &lt;br&gt;&lt;/div&gt;" style="ellipse;whiteSpace=wrap;html=1;aspect=fixed;" vertex="1" parent="1">
          <mxGeometry x="280" y="-200" width="120" height="120" as="geometry" />
        </mxCell>
        <mxCell id="PBpltQ-XPWgyExFx80Mb-29" value="" style="endArrow=none;html=1;rounded=0;entryX=0.5;entryY=1;entryDx=0;entryDy=0;exitX=0.5;exitY=0;exitDx=0;exitDy=0;" edge="1" parent="1" source="PBpltQ-XPWgyExFx80Mb-7" target="PBpltQ-XPWgyExFx80Mb-27">
          <mxGeometry width="50" height="50" relative="1" as="geometry">
            <mxPoint x="620" y="50" as="sourcePoint" />
            <mxPoint x="670" as="targetPoint" />
          </mxGeometry>
        </mxCell>
        <mxCell id="PBpltQ-XPWgyExFx80Mb-30" value="&lt;div&gt;Host: &lt;br&gt;&lt;/div&gt;&lt;div&gt;Eth0: 10.3.0.236&lt;br&gt;&lt;/div&gt;&lt;div&gt;Ports: &lt;br&gt;&lt;/div&gt;" style="ellipse;whiteSpace=wrap;html=1;aspect=fixed;" vertex="1" parent="1">
          <mxGeometry x="120" y="-200" width="120" height="120" as="geometry" />
        </mxCell>
        <mxCell id="PBpltQ-XPWgyExFx80Mb-32" value="&lt;div&gt;Host: &lt;br&gt;&lt;/div&gt;&lt;div&gt;Eth0: 10.3.0.27&lt;br&gt;&lt;/div&gt;&lt;div&gt;Ports: 21,80&lt;br&gt;&lt;/div&gt;" style="ellipse;whiteSpace=wrap;html=1;aspect=fixed;" vertex="1" parent="1">
          <mxGeometry x="440" y="-200" width="120" height="120" as="geometry" />
        </mxCell>
        <mxCell id="PBpltQ-XPWgyExFx80Mb-33" value="" style="endArrow=none;html=1;rounded=0;entryX=0;entryY=0.5;entryDx=0;entryDy=0;exitX=1;exitY=0.5;exitDx=0;exitDy=0;" edge="1" parent="1" source="PBpltQ-XPWgyExFx80Mb-32" target="PBpltQ-XPWgyExFx80Mb-27">
          <mxGeometry width="50" height="50" relative="1" as="geometry">
            <mxPoint x="300" y="60" as="sourcePoint" />
            <mxPoint x="350" y="10" as="targetPoint" />
          </mxGeometry>
        </mxCell>
        <mxCell id="PBpltQ-XPWgyExFx80Mb-34" value="" style="endArrow=none;html=1;rounded=0;entryX=1;entryY=0.5;entryDx=0;entryDy=0;exitX=0;exitY=0.5;exitDx=0;exitDy=0;" edge="1" parent="1" source="PBpltQ-XPWgyExFx80Mb-32" target="PBpltQ-XPWgyExFx80Mb-28">
          <mxGeometry width="50" height="50" relative="1" as="geometry">
            <mxPoint x="440" y="40" as="sourcePoint" />
            <mxPoint x="490" y="-10" as="targetPoint" />
          </mxGeometry>
        </mxCell>
        <mxCell id="PBpltQ-XPWgyExFx80Mb-35" value="" style="endArrow=none;html=1;rounded=0;entryX=1;entryY=0.5;entryDx=0;entryDy=0;exitX=0;exitY=0.5;exitDx=0;exitDy=0;" edge="1" parent="1" source="PBpltQ-XPWgyExFx80Mb-28" target="PBpltQ-XPWgyExFx80Mb-30">
          <mxGeometry width="50" height="50" relative="1" as="geometry">
            <mxPoint x="320" y="120" as="sourcePoint" />
            <mxPoint x="370" y="70" as="targetPoint" />
          </mxGeometry>
        </mxCell>
        <mxCell id="PBpltQ-XPWgyExFx80Mb-36" value="&lt;div&gt;Host: &lt;br&gt;&lt;/div&gt;&lt;div&gt;Eth0: 10.3.0.254&lt;br&gt;&lt;/div&gt;&lt;div&gt;Ports: &lt;br&gt;&lt;/div&gt;" style="ellipse;whiteSpace=wrap;html=1;aspect=fixed;" vertex="1" parent="1">
          <mxGeometry x="-40" y="-200" width="120" height="120" as="geometry" />
        </mxCell>
        <mxCell id="PBpltQ-XPWgyExFx80Mb-37" value="&lt;div&gt;Host: &lt;br&gt;&lt;/div&gt;&lt;div&gt;Eth0: 10.2.0.254&lt;br&gt;&lt;/div&gt;&lt;div&gt;Ports: &lt;br&gt;&lt;/div&gt;" style="ellipse;whiteSpace=wrap;html=1;aspect=fixed;" vertex="1" parent="1">
          <mxGeometry x="1560" y="-200" width="120" height="120" as="geometry" />
        </mxCell>
        <mxCell id="PBpltQ-XPWgyExFx80Mb-38" value="" style="endArrow=none;html=1;rounded=0;entryX=1;entryY=0.5;entryDx=0;entryDy=0;exitX=0;exitY=0.5;exitDx=0;exitDy=0;" edge="1" parent="1" source="PBpltQ-XPWgyExFx80Mb-30" target="PBpltQ-XPWgyExFx80Mb-36">
          <mxGeometry width="50" height="50" relative="1" as="geometry">
            <mxPoint x="90" y="60" as="sourcePoint" />
            <mxPoint x="140" y="10" as="targetPoint" />
          </mxGeometry>
        </mxCell>
        <mxCell id="PBpltQ-XPWgyExFx80Mb-39" value="" style="endArrow=none;html=1;rounded=0;entryX=0;entryY=0.5;entryDx=0;entryDy=0;exitX=1;exitY=0.5;exitDx=0;exitDy=0;" edge="1" parent="1" source="PBpltQ-XPWgyExFx80Mb-13" target="PBpltQ-XPWgyExFx80Mb-37">
          <mxGeometry width="50" height="50" relative="1" as="geometry">
            <mxPoint x="1440" y="150" as="sourcePoint" />
            <mxPoint x="1490" y="100" as="targetPoint" />
          </mxGeometry>
        </mxCell>
        <mxCell id="PBpltQ-XPWgyExFx80Mb-41" value="&lt;div align=&quot;left&quot;&gt;51200 &amp;gt; T4:22&lt;/div&gt;" style="text;html=1;align=left;verticalAlign=middle;whiteSpace=wrap;rounded=0;rotation=-30;" vertex="1" parent="1">
          <mxGeometry x="578" y="91" width="140" height="40" as="geometry" />
        </mxCell>
        <mxCell id="PBpltQ-XPWgyExFx80Mb-42" value="&lt;div align=&quot;left&quot;&gt;51201 &amp;gt; T3:51201&lt;/div&gt;" style="text;html=1;align=left;verticalAlign=middle;whiteSpace=wrap;rounded=0;rotation=-30;" vertex="1" parent="1">
          <mxGeometry x="564" y="259" width="140" height="40" as="geometry" />
        </mxCell>
        <mxCell id="PBpltQ-XPWgyExFx80Mb-43" value="" style="endArrow=classic;html=1;rounded=0;" edge="1" parent="1">
          <mxGeometry width="50" height="50" relative="1" as="geometry">
            <mxPoint x="730" y="299" as="sourcePoint" />
            <mxPoint x="780" y="249" as="targetPoint" />
          </mxGeometry>
        </mxCell>
        <mxCell id="PBpltQ-XPWgyExFx80Mb-47" value="Telnet" style="edgeLabel;html=1;align=center;verticalAlign=middle;resizable=0;points=[];" vertex="1" connectable="0" parent="PBpltQ-XPWgyExFx80Mb-43">
          <mxGeometry x="-0.22" y="-1" relative="1" as="geometry">
            <mxPoint x="-1" as="offset" />
          </mxGeometry>
        </mxCell>
        <mxCell id="PBpltQ-XPWgyExFx80Mb-45" value="" style="endArrow=classic;html=1;rounded=0;" edge="1" parent="1">
          <mxGeometry width="50" height="50" relative="1" as="geometry">
            <mxPoint x="780" y="120" as="sourcePoint" />
            <mxPoint x="710" y="120" as="targetPoint" />
          </mxGeometry>
        </mxCell>
        <mxCell id="PBpltQ-XPWgyExFx80Mb-46" value="SSH" style="edgeLabel;html=1;align=center;verticalAlign=middle;resizable=0;points=[];" vertex="1" connectable="0" parent="PBpltQ-XPWgyExFx80Mb-45">
          <mxGeometry x="-0.4286" relative="1" as="geometry">
            <mxPoint as="offset" />
          </mxGeometry>
        </mxCell>
      </root>
    </mxGraphModel>
  </diagram>
</mxfile>
